<svg xmlns="http://www.w3.org/2000/svg" xmlns:xlink="http://www.w3.org/1999/xlink" width="500" zoomAndPan="magnify" viewBox="0 0 375 374.999991" height="500" preserveAspectRatio="xMidYMid meet" version="1.0"><defs><g/><clipPath id="326bddc22b"><path d="M 101.234375 72 L 254.984375 72 L 254.984375 165 L 101.234375 165 Z M 101.234375 72 " clip-rule="nonzero"/></clipPath><clipPath id="51d4401c09"><path d="M 210 37.5 L 235 37.5 L 235 75 L 210 75 Z M 210 37.5 " clip-rule="nonzero"/></clipPath><clipPath id="2bc907c89b"><path d="M 148 162 L 173 162 L 173 179.25 L 148 179.25 Z M 148 162 " clip-rule="nonzero"/></clipPath><clipPath id="638d2fcd42"><path d="M 179 148 L 204 148 L 204 179.25 L 179 179.25 Z M 179 148 " clip-rule="nonzero"/></clipPath><clipPath id="a4d6e2e2dc"><rect x="0" width="162" y="0" height="88"/></clipPath><clipPath id="295bec1a24"><rect x="0" width="82" y="0" height="38"/></clipPath></defs><rect x="-37.5" width="450" fill="#ffffff" y="-37.499999" height="449.999989" fill-opacity="1"/><rect x="-37.5" width="450" fill="#000000" y="-37.499999" height="449.999989" fill-opacity="1"/><g clip-path="url(#326bddc22b)"><path fill="#ffffff" d="M 219.683594 81.46875 C 203.140625 108.046875 125.042969 177.445312 105.75 133.210938 C 126.757812 188.257812 208.574219 109.847656 228.019531 89.269531 L 233.945312 95.078125 L 234.765625 72.117188 L 214.070312 76.703125 L 219.699219 81.46875 Z M 235.851562 105.039062 C 214.335938 137.230469 123.542969 187.914062 101.460938 132.433594 C 125.222656 201.34375 220.964844 139.6875 245.84375 115.03125 L 252.929688 122.445312 L 254.867188 94.082031 L 229.078125 98.917969 Z M 235.851562 105.039062 " fill-opacity="1" fill-rule="evenodd"/></g><g clip-path="url(#51d4401c09)"><path fill="#ffffff" d="M 210.4375 74.695312 L 234.183594 69.4375 L 234.183594 37.5 L 210.4375 37.5 Z M 210.4375 74.695312 " fill-opacity="1" fill-rule="evenodd"/></g><path fill="#ffffff" d="M 203.246094 81.066406 L 203.246094 54.058594 L 179.496094 54.058594 L 179.496094 119.257812 C 187.34375 112.988281 194.863281 106.15625 201.828125 98.949219 C 202.304688 98.457031 202.78125 97.964844 203.246094 97.460938 Z M 203.246094 81.066406 " fill-opacity="1" fill-rule="evenodd"/><path fill="#ffffff" d="M 172.289062 106.691406 L 172.289062 77.449219 L 148.496094 77.449219 L 148.496094 139.164062 C 157.296875 135.070312 165.8125 129.472656 172.289062 124.753906 Z M 172.289062 106.691406 " fill-opacity="1" fill-rule="evenodd"/><path fill="#ffffff" d="M 203.289062 116.519531 C 197.242188 121.730469 191.003906 126.746094 184.589844 131.453125 C 183.007812 132.613281 181.3125 133.835938 179.496094 135.085938 L 179.496094 144.453125 C 181.65625 143.484375 183.769531 142.472656 185.839844 141.414062 C 191.808594 138.40625 197.675781 134.996094 203.289062 131.246094 Z M 203.289062 116.519531 " fill-opacity="1" fill-rule="evenodd"/><path fill="#ffffff" d="M 210.4375 110.191406 L 210.4375 126.195312 C 211.851562 125.140625 213.234375 124.066406 214.605469 122.980469 C 220.769531 118.050781 227.425781 111.960938 232.234375 105.441406 L 223.644531 97.667969 C 219.785156 101.511719 215.828125 105.261719 211.835938 108.910156 C 211.375 109.328125 210.914062 109.757812 210.4375 110.175781 Z M 210.4375 110.191406 " fill-opacity="1" fill-rule="evenodd"/><path fill="#ffffff" d="M 172.289062 147.457031 L 172.289062 139.867188 C 165.054688 144.4375 156.820312 148.933594 148.496094 151.851562 L 148.496094 153.816406 C 149.121094 153.726562 149.746094 153.636719 150.355469 153.546875 C 157.742188 152.386719 165.15625 150.226562 172.289062 147.460938 Z M 172.289062 147.457031 " fill-opacity="1" fill-rule="evenodd"/><g clip-path="url(#2bc907c89b)"><path fill="#ffffff" d="M 172.289062 162.007812 C 164.5625 164.433594 156.460938 166.203125 148.496094 166.652344 L 148.496094 179.367188 L 172.289062 179.367188 Z M 172.289062 162.007812 " fill-opacity="1" fill-rule="evenodd"/></g><g clip-path="url(#638d2fcd42)"><path fill="#ffffff" d="M 179.496094 159.519531 L 179.496094 179.011719 L 203.289062 179.011719 L 203.289062 148.589844 C 199.761719 150.496094 196.1875 152.296875 192.582031 153.996094 C 188.503906 155.917969 184.097656 157.808594 179.480469 159.519531 Z M 179.496094 159.519531 " fill-opacity="1" fill-rule="evenodd"/></g><path fill="#ffffff" d="M 210.4375 144.554688 L 210.4375 178.921875 L 234.230469 178.921875 L 234.230469 128.5625 C 231.28125 130.8125 228.289062 133 225.238281 135.101562 C 220.441406 138.40625 215.5 141.578125 210.4375 144.554688 Z M 210.4375 144.554688 " fill-opacity="1" fill-rule="evenodd"/><path fill="#ffffff" d="M 211.0625 88.628906 C 212.804688 86.5 214.53125 84.296875 216.078125 82.003906 L 210.4375 77.226562 L 210.4375 89.375 C 210.644531 89.121094 210.851562 88.882812 211.046875 88.628906 Z M 211.0625 88.628906 " fill-opacity="1" fill-rule="evenodd"/><path fill="#ffffff" d="M 228.082031 93.171875 C 226.828125 94.46875 225.5625 95.761719 224.285156 97.042969 L 230.773438 95.820312 L 228.066406 93.171875 Z M 228.082031 93.171875 " fill-opacity="1" fill-rule="evenodd"/><g transform="matrix(1, 0, 0, 1, 106, 182)"><g clip-path="url(#a4d6e2e2dc)"><g fill="#ffffff" fill-opacity="1"><g transform="translate(1.663864, 67.396848)"><g><path d="M 2.265625 0 L 2.265625 -51.109375 L 22.734375 -51.109375 L 22.734375 -41.234375 L 12.671875 -41.234375 L 12.671875 -31.296875 L 22.3125 -31.296875 L 22.3125 -21.65625 L 12.671875 -21.65625 L 12.671875 -9.9375 L 23.390625 -9.9375 L 23.390625 0 Z M 2.265625 0 "/></g></g></g><g fill="#ffffff" fill-opacity="1"><g transform="translate(26.179688, 67.396848)"><g><path d="M 16.71875 0.0625 C 15.207031 0.332031 14.351562 0.46875 14.15625 0.46875 C 10.03125 0.46875 6.894531 -0.707031 4.75 -3.0625 C 2.613281 -5.425781 1.546875 -8.890625 1.546875 -13.453125 L 1.546875 -38.140625 C 1.546875 -42.546875 2.625 -45.890625 4.78125 -48.171875 C 6.945312 -50.453125 10.070312 -51.59375 14.15625 -51.59375 C 18.25 -51.59375 21.375 -50.453125 23.53125 -48.171875 C 25.695312 -45.890625 26.78125 -42.546875 26.78125 -38.140625 L 26.78125 -13.453125 C 26.78125 -9.242188 25.828125 -5.910156 23.921875 -3.453125 L 28.328125 -0.65625 L 24.875 5.421875 Z M 14.15625 -8.921875 C 15.15625 -8.921875 15.789062 -9.394531 16.0625 -10.34375 C 16.34375 -11.300781 16.484375 -12.535156 16.484375 -14.046875 L 16.484375 -37.96875 C 16.484375 -39.269531 16.3125 -40.296875 15.96875 -41.046875 C 15.632812 -41.804688 15.007812 -42.1875 14.09375 -42.1875 C 12.46875 -42.1875 11.65625 -40.796875 11.65625 -38.015625 L 11.65625 -13.859375 C 11.65625 -12.429688 11.8125 -11.25 12.125 -10.3125 C 12.445312 -9.382812 13.125 -8.921875 14.15625 -8.921875 Z M 14.15625 -8.921875 "/></g></g></g><g fill="#ffffff" fill-opacity="1"><g transform="translate(55.574874, 67.396848)"><g><path d="M 14.09375 0.46875 C 9.894531 0.46875 6.773438 -0.71875 4.734375 -3.09375 C 2.691406 -5.46875 1.671875 -9 1.671875 -13.6875 L 1.671875 -51.109375 L 11.609375 -51.109375 L 11.609375 -14.09375 C 11.609375 -12.46875 11.765625 -11.195312 12.078125 -10.28125 C 12.390625 -9.375 13.0625 -8.921875 14.09375 -8.921875 C 15.132812 -8.921875 15.8125 -9.367188 16.125 -10.265625 C 16.4375 -11.160156 16.59375 -12.4375 16.59375 -14.09375 L 16.59375 -51.109375 L 26.53125 -51.109375 L 26.53125 -13.6875 C 26.53125 -9 25.507812 -5.46875 23.46875 -3.09375 C 21.425781 -0.71875 18.300781 0.46875 14.09375 0.46875 Z M 14.09375 0.46875 "/></g></g></g><g fill="#ffffff" fill-opacity="1"><g transform="translate(83.779968, 67.396848)"><g><path d="M 1.78125 0 L 1.78125 -51.109375 L 11.65625 -51.109375 L 11.65625 0 Z M 1.78125 0 "/></g></g></g><g fill="#ffffff" fill-opacity="1"><g transform="translate(97.287468, 67.396848)"><g><path d="M 6.65625 0 L 6.65625 -41.296875 L 0.59375 -41.296875 L 0.59375 -51.109375 L 22.96875 -51.109375 L 22.96875 -41.296875 L 16.890625 -41.296875 L 16.890625 0 Z M 6.65625 0 "/></g></g></g><g fill="#ffffff" fill-opacity="1"><g transform="translate(120.851216, 67.396848)"><g><path d="M 8.453125 0 L 8.453125 -16.84375 L 0.296875 -51.109375 L 10.40625 -51.109375 L 13.265625 -33.796875 L 16.125 -51.109375 L 26.234375 -51.109375 L 18.09375 -16.84375 L 18.09375 0 Z M 8.453125 0 "/></g></g></g><g fill="#ffffff" fill-opacity="1"><g transform="translate(147.400858, 67.396848)"><g/></g></g></g></g><g transform="matrix(1, 0, 0, 1, 142, 257)"><g clip-path="url(#295bec1a24)"><g fill="#ffffff" fill-opacity="1"><g transform="translate(1.151531, 26.505972)"><g><path d="M 1.265625 -17.03125 L 13.09375 -17.03125 L 13.09375 -13.9375 L 4.96875 -13.9375 L 4.96875 -10 L 10.9375 -10 L 10.9375 -7.015625 L 4.96875 -7.015625 L 4.96875 -3.09375 L 13.09375 -3.09375 L 13.09375 0 L 1.265625 0 Z M 1.265625 -17.03125 "/></g></g></g><g fill="#ffffff" fill-opacity="1"><g transform="translate(19.314909, 26.505972)"><g><path d="M 1.265625 -17.03125 L 7.1875 -17.03125 C 9.039062 -17.03125 10.65625 -16.6875 12.03125 -16 C 13.414062 -15.320312 14.484375 -14.347656 15.234375 -13.078125 C 15.984375 -11.816406 16.359375 -10.328125 16.359375 -8.609375 C 16.359375 -5.773438 15.53125 -3.628906 13.875 -2.171875 C 12.226562 -0.722656 9.9375 0 7 0 L 1.265625 0 Z M 7.1875 -3.09375 C 8.925781 -3.09375 10.257812 -3.578125 11.1875 -4.546875 C 12.113281 -5.523438 12.578125 -6.878906 12.578125 -8.609375 C 12.578125 -9.628906 12.375 -10.546875 11.96875 -11.359375 C 11.5625 -12.171875 10.96875 -12.800781 10.1875 -13.25 C 9.40625 -13.707031 8.488281 -13.9375 7.4375 -13.9375 L 4.96875 -13.9375 L 4.96875 -3.09375 Z M 7.1875 -3.09375 "/></g></g></g><g fill="#ffffff" fill-opacity="1"><g transform="translate(40.988633, 26.505972)"><g><path d="M 10 0.359375 C 8.175781 0.359375 6.566406 0 5.171875 -0.71875 C 3.773438 -1.4375 2.691406 -2.460938 1.921875 -3.796875 C 1.160156 -5.128906 0.78125 -6.695312 0.78125 -8.5 C 0.78125 -10.3125 1.160156 -11.882812 1.921875 -13.21875 C 2.691406 -14.5625 3.773438 -15.59375 5.171875 -16.3125 C 6.566406 -17.039062 8.175781 -17.40625 10 -17.40625 C 11.226562 -17.40625 12.316406 -17.273438 13.265625 -17.015625 C 14.222656 -16.765625 15.097656 -16.375 15.890625 -15.84375 L 15.890625 -12.3125 C 15.171875 -12.894531 14.351562 -13.316406 13.4375 -13.578125 C 12.519531 -13.847656 11.476562 -13.984375 10.3125 -13.984375 C 9.21875 -13.984375 8.234375 -13.757812 7.359375 -13.3125 C 6.492188 -12.875 5.8125 -12.238281 5.3125 -11.40625 C 4.8125 -10.582031 4.5625 -9.613281 4.5625 -8.5 C 4.5625 -7.382812 4.789062 -6.40625 5.25 -5.5625 C 5.71875 -4.726562 6.375 -4.082031 7.21875 -3.625 C 8.0625 -3.175781 9.035156 -2.953125 10.140625 -2.953125 C 11.148438 -2.953125 12.023438 -3.128906 12.765625 -3.484375 L 12.765625 -6.78125 L 10.015625 -6.78125 L 10.015625 -9.5 L 16.359375 -9.5 L 16.359375 -1.296875 C 14.742188 -0.191406 12.625 0.359375 10 0.359375 Z M 10 0.359375 "/></g></g></g><g fill="#ffffff" fill-opacity="1"><g transform="translate(62.686741, 26.505972)"><g><path d="M 1.265625 -17.03125 L 13.09375 -17.03125 L 13.09375 -13.9375 L 4.96875 -13.9375 L 4.96875 -10 L 10.9375 -10 L 10.9375 -7.015625 L 4.96875 -7.015625 L 4.96875 -3.09375 L 13.09375 -3.09375 L 13.09375 0 L 1.265625 0 Z M 1.265625 -17.03125 "/></g></g></g></g></g></svg>